<?xml version="1.0" encoding="utf-8"?>
<!-- Generator: Adobe Illustrator 16.0.0, SVG Export Plug-In . SVG Version: 6.00 Build 0)  -->
<!DOCTYPE svg PUBLIC "-//W3C//DTD SVG 1.1//EN" "http://www.w3.org/Graphics/SVG/1.1/DTD/svg11.dtd">
<svg version="1.1" id="Layer_1" xmlns="http://www.w3.org/2000/svg" xmlns:xlink="http://www.w3.org/1999/xlink" x="0px" y="0px"
	 width="4415.285px" height="1080px" viewBox="0 0 4415.285 1080" enable-background="new 0 0 4415.285 1080" xml:space="preserve">
<g>
	<g id="_x31_">
		<circle fill="#EF372F" cx="1101.494" cy="540" r="537.539"/>
		<path fill="#FFFFFF" d="M935.263,437.733v-75.434c34.996-1.556,59.494-3.889,73.492-6.999
			c22.293-4.927,40.439-14.777,54.438-29.555c9.592-10.109,16.85-23.588,21.775-40.438c2.852-10.111,4.277-17.628,4.277-22.554
			h92.156v563.824h-113.543V437.733H935.263z"/>
	</g>
	<g id="_x32_">
		<circle fill="#EF372F" cx="2206.436" cy="540" r="537.539"/>
		<path fill="#FFFFFF" d="M2035.926,715.758c15.814-37.588,53.143-77.379,111.988-119.375
			c51.068-36.551,84.119-62.733,99.156-78.547c23.069-24.627,34.605-51.586,34.605-80.878c0-23.849-6.611-43.682-19.83-59.495
			c-13.222-15.813-32.146-23.718-56.771-23.718c-33.699,0-56.643,12.573-68.826,37.718c-6.999,14.517-11.146,37.587-12.442,69.213
			h-107.71c1.814-47.958,10.499-86.711,26.052-116.266c29.553-56.251,82.047-84.378,157.481-84.378
			c59.624,0,107.062,16.527,142.318,49.578c35.256,33.05,52.883,76.795,52.883,131.235c0,41.734-12.442,78.806-37.329,111.21
			c-16.331,21.516-43.161,45.494-80.491,71.936l-44.328,31.496c-27.738,19.703-46.726,33.961-56.965,42.773
			c-10.24,8.814-18.859,19.053-25.859,30.719h246.139v97.6h-386.122C2010.91,786.139,2019.595,749.199,2035.926,715.758z"/>
	</g>
	<g id="_x33_">
		<circle fill="#EF372F" cx="3313.791" cy="540" r="537.539"/>
		<path fill="#FFFFFF" d="M3222.219,653.543c0,22.553,3.629,41.217,10.886,55.994c13.48,27.219,37.978,40.828,73.493,40.828
			c21.775,0,40.764-7.453,56.967-22.359c16.201-14.906,24.301-36.357,24.301-64.354c0-37.07-15.033-61.826-45.106-74.27
			c-17.108-6.998-44.067-10.498-80.878-10.498v-79.324c36.031-0.52,61.178-4.02,75.435-10.499
			c24.628-10.888,36.94-32.922,36.94-66.104c0-21.516-6.286-39.012-18.857-52.493c-12.572-13.48-30.266-20.22-53.079-20.22
			c-26.18,0-45.429,8.294-57.743,24.885c-12.312,16.59-18.21,38.755-17.691,66.493h-103.433
			c1.038-27.995,5.831-54.568,14.388-79.714c9.072-22.034,23.331-42.383,42.771-61.047c14.518-13.22,31.756-23.331,51.717-30.33
			c19.959-6.999,44.457-10.499,73.492-10.499c53.92,0,97.406,13.933,130.457,41.799c33.051,27.868,49.578,65.263,49.578,112.183
			c0,33.181-9.852,61.178-29.553,83.99c-12.443,14.259-25.405,23.979-38.886,29.164c10.111,0,24.628,8.686,43.553,26.053
			c28.255,26.182,42.384,61.955,42.384,107.32c0,47.699-16.525,89.629-49.578,125.791s-81.982,54.246-146.789,54.246
			c-79.844,0-135.318-26.053-166.426-78.16c-16.331-27.738-25.404-64.029-27.218-108.875H3222.219z"/>
	</g>
</g>
</svg>
