<?xml version="1.0" encoding="utf-8"?>
<!-- Generator: Adobe Illustrator 16.0.0, SVG Export Plug-In . SVG Version: 6.00 Build 0)  -->
<!DOCTYPE svg PUBLIC "-//W3C//DTD SVG 1.1//EN" "http://www.w3.org/Graphics/SVG/1.1/DTD/svg11.dtd">
<svg version="1.1" id="Layer_1" xmlns="http://www.w3.org/2000/svg" xmlns:xlink="http://www.w3.org/1999/xlink" x="0px" y="0px"
	 width="4415.285px" height="1080px" viewBox="0 0 4415.285 1080" enable-background="new 0 0 4415.285 1080" xml:space="preserve">
<g>
	<g id="_x34_">
		<circle fill="#0A9347" cx="1102.82" cy="540" r="535.21"/>
		<path fill="#FFFFFF" d="M1296.981,704.54h-63.495v120.794h-108.018V704.54H903.238v-96.399l206.357-340.702h123.892v350.764
			h63.495V704.54z M1125.469,618.202V375.843l-140.54,242.359H1125.469z"/>
	</g>
	<g id="_x35_">
		<circle fill="#0A9347" cx="2206.363" cy="540" r="535.21"/>
		<path fill="#FFFFFF" d="M2116.738,675.119c4.386,24.003,12.774,42.522,25.165,55.557c12.388,13.033,30.454,19.552,54.202,19.552
			c27.359,0,48.201-9.614,62.527-28.842c14.324-19.228,21.486-43.429,21.486-72.594c0-28.648-6.711-52.848-20.13-72.595
			c-13.425-19.743-34.331-29.615-62.724-29.615c-13.42,0-25.036,1.676-34.846,5.031c-17.292,6.195-30.326,17.68-39.102,34.458
			l-99.113-4.646l39.494-310.115h309.338v93.693h-229.585l-20.134,122.729c17.036-11.099,30.328-18.455,39.879-22.067
			c16.004-5.937,35.488-8.905,58.459-8.905c46.461,0,86.982,15.615,121.57,46.847c34.584,31.23,51.879,76.658,51.879,136.278
			c0,51.883-16.648,98.21-49.941,138.994c-33.298,40.781-83.109,61.17-149.447,61.17c-53.429,0-97.305-14.324-131.634-42.975
			c-34.327-28.651-53.429-69.303-57.299-121.955H2116.738z"/>
	</g>
	<g id="_x36_">
		<circle fill="#0A9347" cx="3312.466" cy="540" r="535.21"/>
		<path fill="#FFFFFF" d="M3251.873,721.578c16.261,19.1,36.909,28.649,61.945,28.649c24.522,0,43.813-9.23,57.882-27.684
			c14.065-18.453,21.103-42.393,21.103-71.818c0-32.78-8.004-57.879-24.007-75.302c-16.004-17.422-35.619-26.134-58.848-26.134
			c-18.843,0-35.489,5.682-49.942,17.034c-21.681,16.777-32.524,43.883-32.524,81.306
			C3227.481,677.825,3235.612,702.475,3251.873,721.578z M3382.735,405.268c0-9.034-3.486-18.971-10.453-29.812
			c-11.873-17.551-29.812-26.328-53.814-26.328c-35.879,0-61.432,20.133-76.661,60.397c-8.259,22.198-13.937,54.977-17.033,98.34
			c13.679-16.26,29.554-28.134,47.621-35.619c18.066-7.486,38.714-11.228,61.944-11.228c49.816,0,90.659,16.906,122.537,50.718
			c31.876,33.811,47.814,77.046,47.814,129.698c0,52.396-15.617,98.599-46.849,138.603c-31.23,40.007-79.753,60.01-145.572,60.01
			c-70.722,0-122.858-29.55-156.409-88.659c-26.069-46.201-39.105-105.824-39.105-178.868c0-42.845,1.807-77.689,5.422-104.532
			c6.453-47.749,18.969-87.499,37.553-119.245c16.004-27.101,36.975-48.911,62.914-65.43c25.941-16.518,56.979-24.779,93.111-24.779
			c52.139,0,93.693,13.358,124.666,40.072s48.395,62.268,52.266,106.663H3382.735z"/>
	</g>
</g>
</svg>
