<?xml version="1.0" encoding="utf-8"?>
<!-- Generator: Adobe Illustrator 16.0.0, SVG Export Plug-In . SVG Version: 6.00 Build 0)  -->
<!DOCTYPE svg PUBLIC "-//W3C//DTD SVG 1.1//EN" "http://www.w3.org/Graphics/SVG/1.1/DTD/svg11.dtd">
<svg version="1.1" id="Layer_1" xmlns="http://www.w3.org/2000/svg" xmlns:xlink="http://www.w3.org/1999/xlink" x="0px" y="0px"
	 width="4415.285px" height="1080px" viewBox="0 0 4415.285 1080" enable-background="new 0 0 4415.285 1080" xml:space="preserve">
<g>
	<g id="A">
		<circle fill="#3155A5" cx="1030" cy="538" r="540"/>
		<path fill="#FFFFFF" d="M959.491,608.312h146.095l-71.875-226.562L959.491,608.312z M966.914,250.11h135.938l203.907,575.781
			h-130.47l-37.109-118.359H927.07l-39.844,118.359H761.445L966.914,250.11z"/>
	</g>
	<g id="C">
		<circle fill="#3155A5" cx="2159.53" cy="538" r="540"/>
		<path fill="#FFFFFF" d="M1987.46,310.266c46.875-47.396,106.511-71.093,178.906-71.093c96.875,0,167.709,31.77,212.5,95.312
			c24.739,35.678,38.021,71.484,39.844,107.422h-120.312c-7.812-27.604-17.839-48.438-30.078-62.499
			c-21.875-25.001-54.297-37.5-97.266-37.5c-43.75,0-78.256,17.642-103.516,52.929c-25.261,35.286-37.891,85.221-37.891,149.805
			c0,64.583,13.346,112.956,40.039,145.117c26.692,32.161,60.611,48.242,101.758,48.242c42.188,0,74.35-13.802,96.484-41.407
			c12.24-14.843,22.396-37.108,30.469-66.796h119.142c-10.418,62.761-37.046,113.802-79.883,153.126
			c-42.839,39.322-97.723,58.983-164.649,58.983c-82.812,0-147.916-26.562-195.312-79.688
			c-47.396-53.386-71.094-126.562-71.094-219.531C1906.601,442.167,1933.554,364.692,1987.46,310.266z"/>
	</g>
	<g id="E">
		<circle fill="#3155A5" cx="3288.155" cy="540.539" r="540"/>
		<path fill="#FFFFFF" d="M3508.077,354.602H3203.39v122.266h279.688v100H3203.39v148.047h318.75V828.43h-436.328V252.649h422.266
			V354.602z"/>
	</g>
</g>
</svg>
