<?xml version="1.0" encoding="utf-8"?>
<!-- Generator: Adobe Illustrator 16.0.0, SVG Export Plug-In . SVG Version: 6.00 Build 0)  -->
<!DOCTYPE svg PUBLIC "-//W3C//DTD SVG 1.1//EN" "http://www.w3.org/Graphics/SVG/1.1/DTD/svg11.dtd">
<svg version="1.1" id="Layer_1" xmlns="http://www.w3.org/2000/svg" xmlns:xlink="http://www.w3.org/1999/xlink" x="0px" y="0px"
	 width="4415.285px" height="1080px" viewBox="0 0 4415.285 1080" enable-background="new 0 0 4415.285 1080" xml:space="preserve">
<g id="B">
	<circle fill="#F26424" cx="540" cy="540" r="540"/>
	<path fill="#FFFFFF" d="M428.867,352.108v126.954h141.406c25.26,0,45.768-4.753,61.523-14.258
		c15.756-9.506,23.633-26.367,23.633-50.586c0-26.822-10.416-44.531-31.25-53.126c-17.969-5.989-40.885-8.984-68.75-8.984H428.867z
		 M428.867,574.375v153.517h141.406c25.26,0,44.922-3.387,58.984-10.157c25.521-12.5,38.281-36.458,38.281-71.875
		c0-29.947-12.37-50.521-37.109-61.719c-13.803-6.249-33.203-9.505-58.203-9.766H428.867z M743.711,313.438
		c17.708,24.479,26.562,53.775,26.562,87.891c0,35.156-8.854,63.411-26.562,84.766c-9.896,11.979-24.479,22.916-43.75,32.812
		c29.427,10.677,51.628,27.604,66.602,50.781s22.461,51.302,22.461,84.375c0,34.114-8.594,64.714-25.781,91.796
		c-10.938,17.97-24.609,33.073-41.016,45.313c-18.49,14.062-40.299,23.697-65.43,28.905c-25.13,5.21-52.408,7.813-81.836,7.813
		H314.023V252.109h279.688C664.284,253.151,714.284,273.594,743.711,313.438z"/>
</g>
<g id="D">
	<circle fill="#F26424" cx="1649.286" cy="540" r="540"/>
	<path fill="#FFFFFF" d="M1538.153,352.108v375.783h110.938c56.771,0,96.354-27.995,118.75-83.984
		c12.239-30.73,18.359-67.319,18.359-109.767c0-58.594-9.18-103.581-27.539-134.961s-54.883-47.071-109.57-47.071H1538.153z
		 M1758.465,264.609c40.364,13.282,73.047,37.63,98.047,73.047c20.053,28.646,33.724,59.635,41.016,92.969
		c7.292,33.333,10.938,65.104,10.938,95.312c0,76.562-15.365,141.406-46.094,194.531
		c-41.667,71.614-105.989,107.422-192.969,107.422h-248.047V252.109h248.047C1705.08,252.63,1734.768,256.796,1758.465,264.609z"/>
</g>
<g id="F">
	<circle fill="#F26424" cx="2761.571" cy="540" r="540"/>
	<path fill="#FFFFFF" d="M2578.173,252.891h408.203v101.172h-288.672v132.422h252.734v100h-252.734v241.406h-119.531V252.891z"/>
</g>
<g id="M">
	<circle fill="#F26424" cx="3875.285" cy="540" r="540"/>
	<path fill="#FFFFFF" d="M3984.66,252.109h173.047v575.781h-112.109V438.438c0-11.198,0.131-26.888,0.391-47.07
		c0.261-20.182,0.391-35.742,0.391-46.679l-108.984,483.202h-116.797l-108.203-483.202c0,10.937,0.13,26.497,0.391,46.679
		c0.26,20.183,0.391,35.872,0.391,47.07v389.453h-112.109V252.109h175l104.688,452.734L3984.66,252.109z"/>
</g>
</svg>
