<?xml version="1.0" encoding="utf-8"?>
<!-- Generator: Adobe Illustrator 16.0.0, SVG Export Plug-In . SVG Version: 6.00 Build 0)  -->
<!DOCTYPE svg PUBLIC "-//W3C//DTD SVG 1.1//EN" "http://www.w3.org/Graphics/SVG/1.1/DTD/svg11.dtd">
<svg version="1.1" id="Layer_1" xmlns="http://www.w3.org/2000/svg" xmlns:xlink="http://www.w3.org/1999/xlink" x="0px" y="0px"
	 width="4415.285px" height="1080px" viewBox="0 0 4415.285 1080" enable-background="new 0 0 4415.285 1080" xml:space="preserve">
<g id="G">
	<circle fill="#70BF46" cx="2159" cy="539" r="540"/>
	<path fill="#FFFFFF" d="M2295.914,430.797c-9.114-39.322-31.38-66.797-66.797-82.422c-19.791-8.594-41.797-12.891-66.016-12.891
		c-46.354,0-84.44,17.514-114.258,52.539c-29.818,35.026-44.727,87.695-44.727,158.008c0,70.833,16.146,120.963,48.438,150.391
		c32.291,29.427,69.01,44.141,110.156,44.141c40.365,0,73.438-11.654,99.219-34.961s41.667-53.841,47.656-91.602h-133.203v-96.094
		h239.844v308.984h-79.688l-12.109-71.875c-23.177,27.343-44.01,46.615-62.5,57.812c-31.771,19.531-70.833,29.297-117.188,29.297
		c-76.303,0-138.803-26.433-187.5-79.297c-50.781-53.125-76.172-125.781-76.172-217.969c0-93.229,25.651-167.969,76.953-224.219
		s119.141-84.375,203.516-84.375c73.178,0,131.967,18.556,176.367,55.665c44.4,37.11,69.857,83.398,76.367,138.867H2295.914z"/>
</g>
</svg>
