<?xml version="1.0" encoding="utf-8"?>
<!-- Generator: Adobe Illustrator 16.0.0, SVG Export Plug-In . SVG Version: 6.00 Build 0)  -->
<!DOCTYPE svg PUBLIC "-//W3C//DTD SVG 1.1//EN" "http://www.w3.org/Graphics/SVG/1.1/DTD/svg11.dtd">
<svg version="1.1" id="Layer_1" xmlns="http://www.w3.org/2000/svg" xmlns:xlink="http://www.w3.org/1999/xlink" x="0px" y="0px"
	 width="4415.285px" height="1080px" viewBox="0 0 4415.285 1080" enable-background="new 0 0 4415.285 1080" xml:space="preserve">
<g>
	<g id="J">
		<circle fill="#9A6633" cx="1603" cy="539" r="540"/>
		<path fill="#FFFFFF" d="M1511.789,608.532v13.28c1.042,44.531,5.925,75.848,14.648,93.945
			c8.725,18.101,27.408,27.148,56.055,27.148c28.386,0,47.136-9.896,56.25-29.688c5.469-11.719,8.203-31.51,8.203-59.375V251.11
			h120.312v400.782c0,48.957-8.463,87.76-25.391,116.405c-28.646,48.438-80.338,72.656-155.078,72.656
			c-74.739,0-124.869-19.597-150.391-58.789c-25.521-39.193-38.281-92.645-38.281-160.352v-13.281L1511.789,608.532
			L1511.789,608.532z"/>
	</g>
	<g id="Z">
		<circle fill="#9A6633" cx="2714.867" cy="539" r="540"/>
		<path fill="#FFFFFF" d="M2490.843,725.329l297.267-372.267h-289.844V251.109h439.844v96.484l-301.172,377.735h301.953V826.89
			h-448.048V725.329z"/>
	</g>
</g>
</svg>
