<?xml version="1.0" encoding="utf-8"?>
<!-- Generator: Adobe Illustrator 16.0.0, SVG Export Plug-In . SVG Version: 6.00 Build 0)  -->
<!DOCTYPE svg PUBLIC "-//W3C//DTD SVG 1.1//EN" "http://www.w3.org/Graphics/SVG/1.1/DTD/svg11.dtd">
<svg version="1.1" id="Layer_1" xmlns="http://www.w3.org/2000/svg" xmlns:xlink="http://www.w3.org/1999/xlink" x="0px" y="0px"
	 width="4415.285px" height="1080px" viewBox="0 0 4415.285 1080" enable-background="new 0 0 4415.285 1080" xml:space="preserve">
<g>
	<g id="N">
		<circle fill="#FCCC11" cx="1053" cy="539" r="540"/>
		<path fill="#010101" d="M823.117,251.109h126.172l229.297,401.953V251.109h112.109v575.781h-120.312L935.227,417.907v408.983
			H823.117V251.109z"/>
	</g>
	<g id="Q">
		<circle fill="#FCCC11" cx="2169.883" cy="539" r="540"/>
		<path fill="#010101" d="M2213.047,735.877c7.031-1.824,16.016-5.08,26.953-9.768l-58.203-55.467l62.109-64.846l58.203,55.469
			c9.113-18.75,15.494-35.156,19.141-49.219c5.729-21.094,8.594-45.703,8.594-73.828c0-64.583-13.217-114.519-39.648-149.805
			c-26.432-35.287-65.039-52.93-115.822-52.93c-47.655,0-85.675,16.928-114.061,50.781c-28.385,33.854-42.578,84.505-42.578,151.953
			c0,78.906,20.312,135.416,60.938,169.531c26.302,22.135,57.812,33.203,94.532,33.203
			C2187.006,740.953,2200.285,739.262,2213.047,735.877z M2431.406,658.531c-10.156,33.072-25.131,60.547-44.922,82.422
			l66.406,62.109L2390,868.688l-69.531-65.625c-21.094,12.762-39.324,21.746-54.688,26.953
			c-25.781,8.594-56.641,12.891-92.578,12.891c-75,0-136.979-22.395-185.938-67.188c-59.375-53.906-89.062-133.072-89.062-237.5
			c0-105.209,30.469-184.766,91.406-238.671c49.74-44.011,111.589-66.016,185.547-66.016c74.479,0,136.979,23.306,187.5,69.921
			c58.334,53.906,87.5,129.297,87.5,226.173C2450.156,580.928,2443.906,623.896,2431.406,658.531z"/>
	</g>
	<g id="R">
		<circle fill="#FCCC11" cx="3286.294" cy="539" r="540"/>
		<path fill="#010101" d="M3178.677,351.109v154.688h136.328c27.083,0,47.396-3.125,60.938-9.375
			c23.958-10.938,35.938-32.553,35.938-64.844c0-34.896-11.588-58.333-34.766-70.312c-13.021-6.771-32.552-10.157-58.594-10.157
			H3178.677z M3436.686,265.954c21.743,9.114,40.169,22.526,55.272,40.234c12.5,14.583,22.396,30.729,29.688,48.438
			c7.292,17.708,10.938,37.891,10.938,60.547c0,27.344-6.901,54.231-20.703,80.664s-36.588,45.117-68.359,56.054
			c26.562,10.678,45.378,25.848,56.445,45.508c11.067,19.662,16.602,49.676,16.602,90.039v38.672
			c0,26.303,1.042,44.141,3.125,53.516c3.125,14.844,10.416,25.781,21.875,32.812v14.453h-132.422
			c-3.646-12.76-6.25-23.047-7.812-30.859c-3.125-16.145-4.818-32.682-5.078-49.609l-0.781-53.516
			c-0.521-36.719-7.227-61.197-20.117-73.438c-12.891-12.238-37.044-18.359-72.461-18.359h-124.219v225.781h-117.578V251.11h282.422
			C3383.885,251.891,3414.94,256.838,3436.686,265.954z"/>
	</g>
</g>
</svg>
