<?xml version="1.0" encoding="utf-8"?>
<!-- Generator: Adobe Illustrator 16.0.0, SVG Export Plug-In . SVG Version: 6.00 Build 0)  -->
<!DOCTYPE svg PUBLIC "-//W3C//DTD SVG 1.1//EN" "http://www.w3.org/Graphics/SVG/1.1/DTD/svg11.dtd">
<svg version="1.1" id="Layer_1" xmlns="http://www.w3.org/2000/svg" xmlns:xlink="http://www.w3.org/1999/xlink" x="0px" y="0px"
	 width="4415.285px" height="1080px" viewBox="0 0 4415.285 1080" enable-background="new 0 0 4415.285 1080" xml:space="preserve">
<g id="S">
	<circle fill="#808184" cx="2159" cy="539" r="540"/>
	<path fill="#FFFFFF" d="M2040.25,649.156c3.646,26.302,10.808,45.964,21.484,58.985c19.531,23.697,52.995,35.546,100.391,35.546
		c28.386,0,51.432-3.125,69.141-9.375c33.594-11.979,50.391-34.245,50.391-66.797c0-19.011-8.334-33.724-25-44.14
		c-16.667-10.157-42.839-19.142-78.516-26.954l-60.938-13.672c-59.896-13.541-101.302-28.256-124.219-44.142
		c-38.802-26.562-58.203-68.099-58.203-124.608c0-51.562,18.75-94.4,56.25-128.516c37.5-34.115,92.578-51.171,165.234-51.171
		c60.678,0,112.435,16.08,155.273,48.242c42.839,32.162,65.299,78.841,67.383,140.039h-115.625
		c-2.083-34.636-17.188-59.245-45.312-73.828c-18.75-9.635-42.057-14.453-69.922-14.453c-30.989,0-55.729,6.249-74.219,18.75
		c-18.49,12.5-27.734,29.948-27.734,52.344c0,20.573,9.115,35.938,27.344,46.094c11.719,6.771,36.719,14.714,75,23.828
		l99.219,23.828c43.49,10.416,76.302,24.35,98.438,41.797c34.375,27.083,51.562,66.276,51.562,117.578
		c0,52.604-20.117,96.289-60.352,131.055s-97.07,52.148-170.508,52.148c-75,0-133.984-17.122-176.953-51.367
		s-64.453-81.315-64.453-141.211H2040.25z"/>
</g>
</svg>
