<?xml version="1.0" encoding="utf-8"?>
<!-- Generator: Adobe Illustrator 16.0.0, SVG Export Plug-In . SVG Version: 6.00 Build 0)  -->
<!DOCTYPE svg PUBLIC "-//W3C//DTD SVG 1.1//EN" "http://www.w3.org/Graphics/SVG/1.1/DTD/svg11.dtd">
<svg version="1.1" id="Layer_1" xmlns="http://www.w3.org/2000/svg" xmlns:xlink="http://www.w3.org/1999/xlink" x="0px" y="0px"
	 width="4415.285px" height="1080px" viewBox="0 0 4415.285 1080" enable-background="new 0 0 4415.285 1080" xml:space="preserve">
<g id="SIR">
	<circle fill="#263D8E" cx="2159" cy="539" r="540"/>
	<g>
		<path fill="#FFFFFF" d="M1843.034,614.822c2.304,16.628,6.831,29.058,13.581,37.288c12.348,14.982,33.503,22.473,63.465,22.473
			c17.945,0,32.516-1.975,43.71-5.927c21.237-7.573,31.855-21.649,31.855-42.228c0-12.019-5.269-21.319-15.804-27.905
			c-10.537-6.42-27.082-12.1-49.637-17.039l-38.523-8.644c-37.864-8.561-64.041-17.861-78.529-27.904
			c-24.529-16.792-36.794-43.05-36.794-78.775c0-32.597,11.854-59.679,35.56-81.245c23.707-21.566,58.526-32.35,104.459-32.35
			c38.357,0,71.078,10.166,98.16,30.497c27.081,20.333,41.281,49.842,42.599,88.53h-73.097
			c-1.316-21.896-10.865-37.453-28.646-46.673c-11.854-6.091-26.587-9.137-44.203-9.137c-19.591,0-35.231,3.951-46.92,11.854
			s-17.533,18.933-17.533,33.091c0,13.006,5.763,22.719,17.287,29.14c7.407,4.28,23.213,9.302,47.413,15.063l62.725,15.064
			c27.492,6.584,48.236,15.392,62.229,26.422c21.732,17.122,32.598,41.898,32.598,74.331c0,33.255-12.718,60.872-38.153,82.851
			c-25.435,21.978-61.365,32.967-107.791,32.967c-47.413,0-84.702-10.825-111.866-32.473
			c-27.164-21.649-40.746-51.407-40.746-89.271H1843.034z"/>
		<rect x="2107.365" y="363.186" fill="#FFFFFF" width="75.565" height="363.997"/>
		<path fill="#FFFFFF" d="M2317.863,426.402v97.791h86.184c17.122,0,29.963-1.976,38.523-5.927
			c15.146-6.915,22.719-20.579,22.719-40.992c0-22.061-7.326-36.877-21.979-44.45c-8.23-4.28-20.578-6.422-37.041-6.422H2317.863z
			 M2480.971,372.568c13.746,5.763,25.395,14.241,34.943,25.437c7.901,9.219,14.157,19.426,18.768,30.62
			c4.609,11.195,6.914,23.955,6.914,38.276c0,17.287-4.363,34.285-13.088,50.995c-8.726,16.71-23.131,28.521-43.216,35.437
			c16.793,6.75,28.687,16.339,35.683,28.769c6.998,12.43,10.496,31.404,10.496,56.921v24.447c0,16.629,0.658,27.906,1.977,33.832
			c1.975,9.384,6.584,16.298,13.828,20.744v9.137h-83.715c-2.305-8.067-3.951-14.57-4.938-19.508
			c-1.976-10.208-3.046-20.662-3.21-31.363l-0.494-33.831c-0.329-23.214-4.568-38.688-12.718-46.427
			c-8.149-7.737-23.418-11.606-45.81-11.606h-78.527v142.735h-74.33V363.186h178.541
			C2447.592,363.679,2467.224,366.808,2480.971,372.568z"/>
	</g>
</g>
</svg>
